<svg xmlns="http://www.w3.org/2000/svg">
<circle cx="673" cy="26" r="5" stroke="white" stroke-width="0" fill="black" />
<text x="673" y="46" >(673, 26)</text>
<circle cx="673" cy="26" r="29.154759" stroke="green" stroke-width="2" fill="transparent" />
<circle cx="336" cy="53" r="5" stroke="white" stroke-width="0" fill="red" />
<text x="336" y="73" >(336, 53)</text>
<circle cx="336" cy="53" r="29.154759" stroke="green" stroke-width="2" fill="transparent" />
<circle cx="50" cy="131" r="5" stroke="white" stroke-width="0" fill="black" />
<text x="50" y="151" >(50, 131)</text>
<circle cx="50" cy="131" r="29.154759" stroke="green" stroke-width="2" fill="transparent" />
<circle cx="54" cy="69" r="5" stroke="white" stroke-width="0" fill="black" />
<text x="54" y="89" >(54, 69)</text>
<circle cx="54" cy="69" r="29.154759" stroke="green" stroke-width="2" fill="transparent" />
<circle cx="321" cy="78" r="5" stroke="white" stroke-width="0" fill="red" />
<text x="321" y="98" >(321, 78)</text>
<circle cx="321" cy="78" r="29.154759" stroke="green" stroke-width="2" fill="transparent" />
<circle cx="142" cy="177" r="5" stroke="white" stroke-width="0" fill="black" />
<text x="142" y="197" >(142, 177)</text>
<circle cx="142" cy="177" r="29.154759" stroke="green" stroke-width="2" fill="transparent" />
<circle cx="163" cy="247" r="5" stroke="white" stroke-width="0" fill="black" />
<text x="163" y="267" >(163, 247)</text>
<circle cx="163" cy="247" r="29.154759" stroke="green" stroke-width="2" fill="transparent" />
<circle cx="245" cy="80" r="5" stroke="white" stroke-width="0" fill="black" />
<text x="245" y="100" >(245, 80)</text>
<circle cx="245" cy="80" r="29.154759" stroke="green" stroke-width="2" fill="transparent" />
<circle cx="330" cy="336" r="5" stroke="white" stroke-width="0" fill="black" />
<text x="330" y="356" >(330, 336)</text>
<circle cx="330" cy="336" r="29.154759" stroke="green" stroke-width="2" fill="transparent" />
<circle cx="589" cy="110" r="5" stroke="white" stroke-width="0" fill="black" />
<text x="589" y="130" >(589, 110)</text>
<circle cx="589" cy="110" r="29.154759" stroke="green" stroke-width="2" fill="transparent" />
<circle cx="448" cy="219" r="5" stroke="white" stroke-width="0" fill="black" />
<text x="448" y="239" >(448, 219)</text>
<circle cx="448" cy="219" r="29.154759" stroke="green" stroke-width="2" fill="transparent" />
<circle cx="456" cy="469" r="5" stroke="white" stroke-width="0" fill="black" />
<text x="456" y="489" >(456, 469)</text>
<circle cx="456" cy="469" r="29.154759" stroke="green" stroke-width="2" fill="transparent" />
<circle cx="471" cy="140" r="5" stroke="white" stroke-width="0" fill="black" />
<text x="471" y="160" >(471, 140)</text>
<circle cx="471" cy="140" r="29.154759" stroke="green" stroke-width="2" fill="transparent" />
<circle cx="684" cy="142" r="5" stroke="white" stroke-width="0" fill="black" />
<text x="684" y="162" >(684, 142)</text>
<circle cx="684" cy="142" r="29.154759" stroke="green" stroke-width="2" fill="transparent" />
<circle cx="543" cy="143" r="5" stroke="white" stroke-width="0" fill="black" />
<text x="543" y="163" >(543, 143)</text>
<circle cx="543" cy="143" r="29.154759" stroke="green" stroke-width="2" fill="transparent" />
<circle cx="501" cy="311" r="5" stroke="white" stroke-width="0" fill="black" />
<text x="501" y="331" >(501, 311)</text>
<circle cx="501" cy="311" r="29.154759" stroke="green" stroke-width="2" fill="transparent" />
<circle cx="658" cy="183" r="5" stroke="white" stroke-width="0" fill="black" />
<text x="658" y="203" >(658, 183)</text>
<circle cx="658" cy="183" r="29.154759" stroke="green" stroke-width="2" fill="transparent" />
<circle cx="859" cy="185" r="5" stroke="white" stroke-width="0" fill="black" />
<text x="859" y="205" >(859, 185)</text>
<circle cx="859" cy="185" r="29.154759" stroke="green" stroke-width="2" fill="transparent" />
<circle cx="620" cy="236" r="5" stroke="white" stroke-width="0" fill="black" />
<text x="620" y="256" >(620, 236)</text>
<circle cx="620" cy="236" r="29.154759" stroke="green" stroke-width="2" fill="transparent" />
<circle cx="881" cy="236" r="5" stroke="white" stroke-width="0" fill="black" />
<text x="881" y="256" >(881, 236)</text>
<circle cx="881" cy="236" r="29.154759" stroke="green" stroke-width="2" fill="transparent" />
<circle cx="641" cy="276" r="5" stroke="white" stroke-width="0" fill="black" />
<text x="641" y="296" >(641, 276)</text>
<circle cx="641" cy="276" r="29.154759" stroke="green" stroke-width="2" fill="transparent" />
<circle cx="768" cy="245" r="5" stroke="white" stroke-width="0" fill="black" />
<text x="768" y="265" >(768, 245)</text>
<circle cx="768" cy="245" r="29.154759" stroke="green" stroke-width="2" fill="transparent" />
<circle cx="873" cy="348" r="5" stroke="white" stroke-width="0" fill="black" />
<text x="873" y="368" >(873, 348)</text>
<circle cx="873" cy="348" r="29.154759" stroke="green" stroke-width="2" fill="transparent" />
<circle cx="491" cy="409" r="5" stroke="white" stroke-width="0" fill="black" />
<text x="491" y="429" >(491, 409)</text>
<circle cx="491" cy="409" r="29.154759" stroke="green" stroke-width="2" fill="transparent" />
<circle cx="623" cy="310" r="5" stroke="white" stroke-width="0" fill="black" />
<text x="623" y="330" >(623, 310)</text>
<circle cx="623" cy="310" r="29.154759" stroke="green" stroke-width="2" fill="transparent" />
</svg>
